# Blender v2.76 (sub 0) OBJ File: ''
# www.blender.org
mtllib obstacle.mtl
o Cube.001
v 1.000000 0.000000 -1.000000
v 1.000000 -0.000000 1.000000
v -1.000000 -0.000000 1.000000
v -1.000000 0.000000 -1.000000
v 1.000000 2.000000 -0.999999
v -1.000000 2.000000 -1.000000
v -1.000000 2.000000 1.000000
v 0.999999 2.000000 1.000001
vt -0.988327 0.996109
vt 0.003891 0.996109
vt 0.003891 1.988327
vt -0.988327 1.988327
vt 0.996109 0.003891
vt 0.996109 0.996109
vt 0.003891 0.003892
vt 0.003891 -0.988327
vt 0.996109 -0.988327
vt -0.988327 0.003891
vt -0.988327 -0.988326
vt 1.988327 0.003891
vt 1.988327 -0.988327
vn 0.000000 -1.000000 -0.000000
vn 0.000000 1.000000 0.000000
vn 1.000000 0.000000 0.000000
vn -0.000000 -0.000000 1.000000
vn -1.000000 -0.000000 0.000000
vn 0.000000 0.000000 -1.000000
usemtl Material.001
s 1
f 1/1/1 2/2/1 3/3/1 4/4/1
f 5/5/2 6/6/2 7/2/2 8/7/2
f 1/5/3 5/7/3 8/8/3 2/9/3
f 2/10/4 8/11/4 7/8/4 3/7/4
f 3/12/5 7/5/5 6/9/5 4/13/5
f 5/10/6 1/7/6 4/2/6 6/1/6
